Coordinates
version=1
nRows=11
nColumns=40
inDegrees=yes

Units are S.I. units (second, meters, Newtons, ...)
If the header above contains a line with 'inDegrees', this indicates whether rotational values are in degrees (yes) or radians (no).

endheader
time	pelvis_tilt	pelvis_list	pelvis_rotation	pelvis_tx	pelvis_ty	pelvis_tz	hip_flexion_r	hip_adduction_r	hip_rotation_r	knee_angle_r	knee_angle_r_beta	ankle_angle_r	subtalar_angle_r	mtp_angle_r	hip_flexion_l	hip_adduction_l	hip_rotation_l	knee_angle_l	knee_angle_l_beta	ankle_angle_l	subtalar_angle_l	mtp_angle_l	lumbar_extension	lumbar_bending	lumbar_rotation	arm_flex_r	arm_add_r	arm_rot_r	elbow_flex_r	pro_sup_r	wrist_flex_r	wrist_dev_r	arm_flex_l	arm_add_l	arm_rot_l	elbow_flex_l	pro_sup_l	wrist_flex_l	wrist_dev_l
      0.00000000	      0.72898699	      2.43484269	     -2.11426686	      0.26646880	      0.91275269	     -1.21439579	     -0.30474498	    -21.81944081	    -35.85720654	      7.64405508	      0.13341393	     -5.01036163	     10.61494793	      0.00000000	     -0.99475917	    -15.95743930	    -38.74582546	      7.26314540	      0.12676580	     -4.08018165	     18.25105744	      0.00000000	     -3.52733634	     -1.10466107	      1.29523972	     42.63112764	    -15.74341587	     42.63112764	     75.15877857	     44.60199122	      0.00000000	      0.00000000	     42.63112764	    -15.74341587	     42.63112764	     75.15877857	     44.60199122	      0.00000000	      0.00000000
      0.00500000	      0.77662996	      2.43544109	     -2.16667404	      0.26639338	      0.91287505	     -1.21425786	     -0.37063796	    -21.76588993	    -35.70057606	      7.51760272	      0.13120692	     -5.08854830	     10.42611957	      0.00000000	     -1.10094535	    -15.91154224	    -38.68978449	      7.13667308	      0.12455844	     -4.16279536	     18.06656343	      0.00000000	     -3.59484689	     -1.11339495	      1.37259859	     42.65420568	    -15.73189692	     42.65420568	     75.15429220	     44.62878126	      0.00000000	      0.00000000	     42.65420568	    -15.73189692	     42.65420568	     75.15429220	     44.62878126	      0.00000000	      0.00000000
      0.01000000	      0.73662743	      2.50924255	     -2.19287572	      0.26640684	      0.91274927	     -1.21423384	     -0.23481782	    -21.92727240	    -35.80611463	      7.72905417	      0.13489744	     -4.93669980	     10.64528768	      0.00000000	     -1.05813848	    -15.83888383	    -38.75307694	      7.16050543	      0.12497440	     -4.12852908	     18.16200365	      0.00000000	     -3.54219041	     -1.20279362	      1.39177404	     42.85106418	    -15.64315077	     42.85106418	     75.12618211	     44.73743160	      0.00000000	      0.00000000	     42.85106418	    -15.64315077	     42.85106418	     75.12618211	     44.73743160	      0.00000000	      0.00000000
      0.01500000	      0.73927221	      2.49192161	     -2.14814587	      0.26639189	      0.91277845	     -1.21433495	     -0.29027089	    -21.88280141	    -35.81278759	      7.64344592	      0.13340330	     -5.01330757	     10.58851860	      0.00000000	     -1.04634914	    -15.85127884	    -38.70721158	      7.14932673	      0.12477929	     -4.15656127	     18.11325272	      0.00000000	     -3.55484363	     -1.17190586	      1.34737755	     42.86926247	    -15.63496472	     42.86926247	     75.12349691	     44.74922709	      0.00000000	      0.00000000	     42.86926247	    -15.63496472	     42.86926247	     75.12349691	     44.74922709	      0.00000000	      0.00000000
      0.02000000	      0.72002589	      2.47917051	     -2.09367511	      0.26639752	      0.91271900	     -1.21443485	     -0.27315373	    -21.89771733	    -35.95303170	      7.71213141	      0.13460209	     -4.96162408	     10.70605334	      0.00000000	     -0.96868957	    -15.90622213	    -38.72600854	      7.26270763	      0.12675816	     -4.07810171	     18.23241624	      0.00000000	     -3.52794456	     -1.15922563	      1.28808103	     42.93801923	    -15.60715597	     42.93801923	     75.11596915	     44.77403125	      0.00000000	      0.00000000	     42.93801923	    -15.60715597	     42.93801923	     75.11596915	     44.77403125	      0.00000000	      0.00000000
      0.02500000	      0.69814884	      2.47802202	     -2.06027360	      0.26636836	      0.91264738	     -1.21447890	     -0.23989400	    -21.92550203	    -36.04304484	      7.78866361	      0.13593782	     -4.84830869	     10.82220446	      0.00000000	     -0.89996173	    -15.94843281	    -38.77535198	      7.36569404	      0.12855561	     -3.97127182	     18.40637199	      0.00000000	     -3.51214628	     -1.15734734	      1.24734426	     42.95460306	    -15.60103964	     42.95460306	     75.11456058	     44.77777661	      0.00000000	      0.00000000	     42.95460306	    -15.60103964	     42.95460306	     75.11456058	     44.77777661	      0.00000000	      0.00000000
      0.03000000	      0.73089897	      2.38654349	     -2.11253547	      0.26628450	      0.91276833	     -1.21437593	     -0.30295471	    -21.75199919	    -35.86970183	      7.60798351	      0.13278436	     -5.05625550	     10.57991932	      0.00000000	     -0.97544395	    -16.02215116	    -38.73837381	      7.29122768	      0.12725593	     -4.05656176	     18.23111357	      0.00000000	     -3.57138053	     -1.04304748	      1.33006070	     43.24868313	    -15.47856550	     43.24868313	     75.08080167	     44.87541880	      0.00000000	      0.00000000	     43.24868313	    -15.47856550	     43.24868313	     75.08080167	     44.87541880	      0.00000000	      0.00000000
      0.03500000	      0.76955049	      2.38562653	     -2.10462226	      0.26620132	      0.91285093	     -1.21439507	     -0.38053409	    -21.71552895	    -35.80115598	      7.50796617	      0.13103873	     -5.13602039	     10.43276914	      0.00000000	     -1.01934189	    -16.00223224	    -38.68283459	      7.25730243	      0.12666382	     -4.08943274	     18.10171255	      0.00000000	     -3.63626675	     -1.04842852	      1.30987327	     43.26135715	    -15.47323633	     43.26135715	     75.07921877	     44.88119730	      0.00000000	      0.00000000	     43.26135715	    -15.47323633	     43.26135715	     75.07921877	     44.88119730	      0.00000000	      0.00000000
      0.04000000	      0.74061496	      2.41938187	     -2.10897184	      0.26619005	      0.91277632	     -1.21435826	     -0.30330278	    -21.79153175	    -35.87320186	      7.62583132	      0.13309586	     -5.01288697	     10.55809330	      0.00000000	     -0.97635442	    -15.98492894	    -38.72482591	      7.28269136	      0.12710694	     -4.08971481	     18.21062164	      0.00000000	     -3.60309298	     -1.08216805	      1.36471384	     43.40868389	    -15.41752140	     43.40868389	     75.06596772	     44.91155806	      0.00000000	      0.00000000	     43.40868389	    -15.41752140	     43.40868389	     75.06596772	     44.91155806	      0.00000000	      0.00000000
      0.04500000	      0.72663826	      2.50414671	     -2.12472517	      0.26615868	      0.91275201	     -1.21435474	     -0.24826446	    -21.91349509	    -35.88133189	      7.69299476	      0.13426809	     -4.99727385	     10.58489395	      0.00000000	     -0.97807708	    -15.86407938	    -38.70975001	      7.22529230	      0.12610514	     -4.12533435	     18.15637305	      0.00000000	     -3.58594232	     -1.19401969	      1.35321888	     43.47724948	    -15.39148786	     43.47724948	     75.05958384	     44.92677579	      0.00000000	      0.00000000	     43.47724948	    -15.39148786	     43.47724948	     75.05958384	     44.92677579	      0.00000000	      0.00000000
      0.05000000	      0.76095749	      2.43340077	     -2.17104922	      0.26607082	      0.91286383	     -1.21428582	     -0.31509293	    -21.76910882	    -35.69155477	      7.53251876	      0.13146725	     -5.12903491	     10.35627248	      0.00000000	     -1.06548472	    -15.90902770	    -38.69194993	      7.12616636	      0.12437507	     -4.18741755	     18.04834087	      0.00000000	     -3.65387157	     -1.09684903	      1.44849515	     43.47122210	    -15.39286861	     43.47122210	     75.05954811	     44.92862892	      0.00000000	      0.00000000	     43.47122210	    -15.39286861	     43.47122210	     75.05954811	     44.92862892	      0.00000000	      0.00000000
